<svg width="272" height="247" viewBox="0 0 272 247" fill="none" xmlns="http://www.w3.org/2000/svg">
<path d="M183.239 88.0556C163.935 88.0556 144.285 87.2714 125.903 82.1513C107.867 77.1465 91.3075 67.4368 76.5468 56.2048C66.8832 48.8937 58.096 43.0586 45.5494 43.935C33.2751 44.5992 21.5375 49.1827 12.0611 57.012C-3.89886 70.9886 -1.50025 96.8889 4.88835 115.017C14.4828 142.393 43.6813 161.467 68.4976 173.806C97.1656 188.128 128.67 196.454 160.244 201.228C187.921 205.449 223.485 208.493 247.471 190.435C269.497 173.806 275.539 135.889 270.142 110.289C268.833 102.726 264.806 95.902 258.818 91.1C243.342 79.7758 220.256 87.3406 202.866 87.7096C196.408 87.848 189.835 88.0095 183.239 88.0556Z" fill="#FAFFFE"/>
<path d="M17.4648 37.201L47.4475 34.664C51.1863 34.3366 54.9241 35.3035 58.0351 37.4027C61.1462 39.502 63.4418 42.6062 64.5376 46.1958L93.2748 142.371L87.6472 152.45C86.2018 155.046 85.4883 157.987 85.5827 160.958C85.6771 163.928 86.5759 166.817 88.1833 169.317C89.7907 171.817 92.0464 173.834 94.7099 175.152C97.3734 176.471 100.345 177.042 103.307 176.805L218.395 167.026" stroke="#00BFA6" stroke-width="2.30636" stroke-linecap="round" stroke-linejoin="round"/>
<path d="M68.8281 60.7954L202.597 49.4482C203.915 49.3353 205.241 49.5205 206.477 49.9901C207.714 50.4597 208.828 51.2017 209.739 52.1609C210.649 53.1202 211.332 54.2721 211.737 55.5313C212.141 56.7905 212.257 58.1246 212.076 59.4347L203.012 124.866C202.737 126.829 201.809 128.643 200.378 130.015C198.948 131.387 197.097 132.238 195.124 132.431L93.2755 142.371L68.8281 60.7954Z" fill="white" stroke="#00BFA6" stroke-width="2.30636" stroke-linecap="round" stroke-linejoin="round"/>
<path d="M116.101 198.849C122.101 198.849 126.964 193.985 126.964 187.986C126.964 181.987 122.101 177.123 116.101 177.123C110.102 177.123 105.238 181.987 105.238 187.986C105.238 193.985 110.102 198.849 116.101 198.849Z" fill="white" stroke="#00BFA6" stroke-width="2.30636" stroke-linecap="round" stroke-linejoin="round"/>
<path d="M191.757 192.441C197.757 192.441 202.62 187.577 202.62 181.578C202.62 175.578 197.757 170.715 191.757 170.715C185.758 170.715 180.895 175.578 180.895 181.578C180.895 187.577 185.758 192.441 191.757 192.441Z" fill="white" stroke="#00BFA6" stroke-width="2.30636" stroke-linecap="round" stroke-linejoin="round"/>
<path d="M41.2058 32.069L12.9392 34.4674C10.4897 34.6753 8.6724 36.8295 8.88025 39.2791C9.0881 41.7286 11.2424 43.5459 13.6919 43.3381L41.9585 40.9396C44.4081 40.7318 46.2253 38.5775 46.0175 36.1279C45.8097 33.6784 43.6554 31.8611 41.2058 32.069Z" fill="#00BFA6"/>
<path d="M125.145 111.327C125.696 107.118 127.67 103.223 130.739 100.29C133.808 97.3569 137.787 95.561 142.017 95.2002C146.247 94.8394 150.473 95.9354 153.995 98.3065C157.516 100.678 160.121 104.181 161.377 108.236" stroke="#00BFA6" stroke-width="2.30636" stroke-linecap="round" stroke-linejoin="round"/>
<path d="M163.115 83.8605C163.115 84.6502 162.474 85.2904 161.685 85.2904C160.895 85.2904 160.255 84.6502 160.255 83.8605C160.255 83.0707 160.895 82.4305 161.685 82.4305C162.474 82.4305 163.115 83.0707 163.115 83.8605Z" fill="#BABABA" stroke="#00BFA6" stroke-width="2.30636"/>
<path d="M122.177 87.3194C122.177 88.1092 121.537 88.7494 120.747 88.7494C119.957 88.7494 119.317 88.1092 119.317 87.3194C119.317 86.5297 119.957 85.8895 120.747 85.8895C121.537 85.8895 122.177 86.5297 122.177 87.3194Z" fill="#BABABA" stroke="#00BFA6" stroke-width="2.30636"/>
<path d="M47.9844 184.785V194.726" stroke="#00BFA6" stroke-width="2.30636" stroke-linecap="round" stroke-linejoin="round"/>
<path d="M43.0156 189.742H52.933" stroke="#00BFA6" stroke-width="2.30636" stroke-linecap="round" stroke-linejoin="round"/>
<path d="M206.449 0V9.91733" stroke="#00BFA6" stroke-width="2.30636" stroke-linecap="round" stroke-linejoin="round"/>
<path d="M201.488 4.95898H211.406" stroke="#00BFA6" stroke-width="2.30636" stroke-linecap="round" stroke-linejoin="round"/>
<path d="M89.0312 29.6348V39.5521" stroke="#00BFA6" stroke-width="2.30636" stroke-linecap="round" stroke-linejoin="round"/>
<path d="M84.0469 34.5957H93.9873" stroke="#00BFA6" stroke-width="2.30636" stroke-linecap="round" stroke-linejoin="round"/>
<path d="M231.192 66.0995C232.492 66.0995 233.545 65.0463 233.545 63.747C233.545 62.4478 232.492 61.3945 231.192 61.3945C229.893 61.3945 228.84 62.4478 228.84 63.747C228.84 65.0463 229.893 66.0995 231.192 66.0995Z" fill="white" stroke="#00BFA6" stroke-width="2.30636" stroke-linecap="round" stroke-linejoin="round"/>
<path d="M144.395 42.688C144.395 43.2994 143.899 43.795 143.288 43.795C142.676 43.795 142.181 43.2994 142.181 42.688C142.181 42.0766 142.676 41.5809 143.288 41.5809C143.899 41.5809 144.395 42.0765 144.395 42.688Z" fill="#CFCFCF" stroke="#00BFA6" stroke-width="2.30636"/>
<path d="M159.559 206.719C159.559 207.331 159.063 207.826 158.452 207.826C157.84 207.826 157.345 207.331 157.345 206.719C157.345 206.108 157.84 205.612 158.452 205.612C159.063 205.612 159.559 206.108 159.559 206.719Z" fill="#CFCFCF" stroke="#00BFA6" stroke-width="2.30636"/>
</svg>
