<svg width="32" height="32" viewBox="0 0 32 32" fill="none" xmlns="http://www.w3.org/2000/svg">
<circle cx="16" cy="16" r="16" fill="white"/>
<path d="M16 9.44152C18.136 9.44152 18.389 9.44952 19.2328 9.488C19.7401 9.49421 20.2426 9.58737 20.7185 9.76343C21.0636 9.89651 21.3769 10.1004 21.6385 10.3619C21.9 10.6234 22.1039 10.9368 22.237 11.2819C22.413 11.7578 22.5062 12.2603 22.5124 12.7676C22.5505 13.6114 22.5589 13.8644 22.5589 16.0004C22.5589 18.1364 22.5509 18.3893 22.5124 19.2331C22.5062 19.7405 22.413 20.243 22.237 20.7189C22.1039 21.0639 21.9 21.3773 21.6385 21.6389C21.3769 21.9004 21.0636 22.1042 20.7185 22.2373C20.2426 22.4134 19.7401 22.5066 19.2328 22.5128C18.3893 22.5509 18.1364 22.5592 16 22.5592C13.8636 22.5592 13.6107 22.5512 12.7672 22.5128C12.2599 22.5066 11.7574 22.4134 11.2815 22.2373C10.9364 22.1042 10.6231 21.9004 10.3615 21.6389C10.1 21.3773 9.89613 21.0639 9.76305 20.7189C9.58699 20.243 9.49383 19.7405 9.48762 19.2331C9.44952 18.3893 9.44114 18.1364 9.44114 16.0004C9.44114 13.8644 9.44914 13.6114 9.48762 12.7676C9.49383 12.2603 9.58699 11.7578 9.76305 11.2819C9.89613 10.9368 10.1 10.6234 10.3615 10.3619C10.6231 10.1004 10.9364 9.89651 11.2815 9.76343C11.7574 9.58737 12.2599 9.49421 12.7672 9.488C13.611 9.4499 13.864 9.44152 16 9.44152ZM16 8C13.8286 8 13.555 8.00914 12.7017 8.048C12.0377 8.06121 11.3808 8.18693 10.7589 8.41981C10.2253 8.62082 9.74209 8.93583 9.34286 9.34286C8.93547 9.74224 8.62019 10.2258 8.41905 10.7596C8.18616 11.3816 8.06044 12.0385 8.04724 12.7025C8.00914 13.555 8 13.8286 8 16C8 18.1714 8.00914 18.445 8.048 19.2983C8.06121 19.9623 8.18693 20.6192 8.41981 21.2411C8.62073 21.7749 8.93574 22.2584 9.34286 22.6579C9.74231 23.065 10.2258 23.38 10.7596 23.581C11.3816 23.8138 12.0385 23.9396 12.7025 23.9528C13.5558 23.9909 13.8282 24.0008 16.0008 24.0008C18.1733 24.0008 18.4457 23.9916 19.299 23.9528C19.963 23.9396 20.62 23.8138 21.2419 23.581C21.7732 23.375 22.2556 23.0605 22.6584 22.6575C23.0611 22.2544 23.3754 21.7718 23.581 21.2404C23.8138 20.6184 23.9396 19.9615 23.9528 19.2975C23.9909 18.445 24 18.1714 24 16C24 13.8286 23.9909 13.555 23.952 12.7017C23.9388 12.0377 23.8131 11.3808 23.5802 10.7589C23.3793 10.2251 23.0643 9.74155 22.6571 9.3421C22.2577 8.93498 21.7742 8.61996 21.2404 8.41905C20.6184 8.18616 19.9615 8.06044 19.2975 8.04724C18.445 8.00914 18.1714 8 16 8Z" fill="#00BFA6"/>
<path d="M16.0017 11.8936C15.1892 11.8936 14.3949 12.1345 13.7194 12.5859C13.0438 13.0373 12.5172 13.6789 12.2063 14.4296C11.8953 15.1803 11.814 16.0063 11.9725 16.8032C12.131 17.6001 12.5223 18.3321 13.0968 18.9067C13.6714 19.4812 14.4034 19.8725 15.2003 20.031C15.9972 20.1895 16.8232 20.1082 17.5739 19.7972C18.3246 19.4863 18.9662 18.9597 19.4176 18.2841C19.869 17.6085 20.1099 16.8143 20.1099 16.0017C20.1099 14.9122 19.6771 13.8673 18.9067 13.0968C18.1362 12.3264 17.0913 11.8936 16.0017 11.8936ZM16.0017 18.6684C15.4743 18.6684 14.9588 18.512 14.5202 18.219C14.0817 17.926 13.7399 17.5095 13.5381 17.0222C13.3362 16.535 13.2834 15.9988 13.3863 15.4815C13.4892 14.9642 13.7432 14.4891 14.1161 14.1161C14.4891 13.7432 14.9642 13.4892 15.4815 13.3863C15.9988 13.2834 16.535 13.3362 17.0222 13.5381C17.5095 13.7399 17.926 14.0817 18.219 14.5202C18.512 14.9588 18.6684 15.4743 18.6684 16.0017C18.6684 16.709 18.3875 17.3873 17.8874 17.8874C17.3873 18.3875 16.709 18.6684 16.0017 18.6684Z" fill="#00BFA6"/>
<path d="M20.2715 12.6905C20.8017 12.6905 21.2315 12.2607 21.2315 11.7305C21.2315 11.2003 20.8017 10.7705 20.2715 10.7705C19.7413 10.7705 19.3115 11.2003 19.3115 11.7305C19.3115 12.2607 19.7413 12.6905 20.2715 12.6905Z" fill="#00BFA6"/>
</svg>
